{
  "asset": {
    "generator": "glTF-Transform v4.5.1",
    "version": "2.0"
  },
  "accessors": [
    {
      "type": "VEC3",
      "componentType": 5126,
      "count": 1092,
      "max": [
        0.326664000749588,
        1.5228018760681152,
        0.02576727606356144
      ],
      "min": [
        0.11606632173061371,
        1.3989821672439575,
        -0.16352225840091705
      ],
      "bufferView": 0,
      "byteOffset": 0
    },
    {
      "type": "VEC3",
      "componentType": 5126,
      "count": 1092,
      "bufferView": 0,
      "byteOffset": 12
    },
    {
      "type": "VEC2",
      "componentType": 5126,
      "count": 1092,
      "bufferView": 0,
      "byteOffset": 24
    },
    {
      "type": "VEC4",
      "componentType": 5121,
      "count": 1092,
      "normalized": true,
      "bufferView": 0,
      "byteOffset": 32
    },
    {
      "type": "VEC4",
      "componentType": 5123,
      "count": 1092,
      "normalized": true,
      "bufferView": 0,
      "byteOffset": 36
    },
    {
      "type": "VEC4",
      "componentType": 5123,
      "count": 1092,
      "normalized": true,
      "bufferView": 0,
      "byteOffset": 44
    },
    {
      "type": "VEC4",
      "componentType": 5121,
      "count": 1092,
      "bufferView": 0,
      "byteOffset": 52
    },
    {
      "type": "VEC4",
      "componentType": 5126,
      "count": 1092,
      "bufferView": 0,
      "byteOffset": 56
    },
    {
      "type": "SCALAR",
      "componentType": 5123,
      "count": 4128,
      "bufferView": 1,
      "byteOffset": 0
    },
    {
      "type": "SCALAR",
      "componentType": 5123,
      "count": 9000,
      "bufferView": 1,
      "byteOffset": 8256
    },
    {
      "type": "SCALAR",
      "componentType": 5123,
      "count": 5616,
      "bufferView": 1,
      "byteOffset": 26256
    },
    {
      "type": "SCALAR",
      "componentType": 5123,
      "count": 10908,
      "bufferView": 1,
      "byteOffset": 37488
    },
    {
      "type": "SCALAR",
      "componentType": 5123,
      "count": 8886,
      "bufferView": 1,
      "byteOffset": 59304
    },
    {
      "type": "SCALAR",
      "componentType": 5123,
      "count": 2412,
      "bufferView": 1,
      "byteOffset": 77076
    },
    {
      "type": "SCALAR",
      "componentType": 5123,
      "count": 2412,
      "bufferView": 1,
      "byteOffset": 81900
    },
    {
      "type": "SCALAR",
      "componentType": 5123,
      "count": 27516,
      "bufferView": 1,
      "byteOffset": 86724
    },
    {
      "type": "SCALAR",
      "componentType": 5123,
      "count": 6408,
      "bufferView": 1,
      "byteOffset": 141756
    },
    {
      "type": "SCALAR",
      "componentType": 5123,
      "count": 3612,
      "bufferView": 1,
      "byteOffset": 154572
    },
    {
      "type": "MAT4",
      "componentType": 5126,
      "count": 65,
      "bufferView": 2,
      "byteOffset": 0
    },
    {
      "type": "VEC3",
      "componentType": 5126,
      "count": 1774,
      "max": [
        0.7480697631835938,
        1.4815278053283691,
        0.013194194063544273
      ],
      "min": [
        -0.7480697631835938,
        1.3462014198303223,
        -0.10578679293394089
      ],
      "bufferView": 3,
      "byteOffset": 0
    },
    {
      "type": "VEC3",
      "componentType": 5126,
      "count": 1774,
      "bufferView": 3,
      "byteOffset": 12
    },
    {
      "type": "VEC2",
      "componentType": 5126,
      "count": 1774,
      "bufferView": 3,
      "byteOffset": 24
    },
    {
      "type": "VEC4",
      "componentType": 5121,
      "count": 1774,
      "normalized": true,
      "bufferView": 3,
      "byteOffset": 32
    },
    {
      "type": "VEC4",
      "componentType": 5123,
      "count": 1774,
      "normalized": true,
      "bufferView": 3,
      "byteOffset": 36
    },
    {
      "type": "VEC4",
      "componentType": 5123,
      "count": 1774,
      "normalized": true,
      "bufferView": 3,
      "byteOffset": 44
    },
    {
      "type": "VEC4",
      "componentType": 5121,
      "count": 1774,
      "bufferView": 3,
      "byteOffset": 52
    },
    {
      "type": "VEC4",
      "componentType": 5126,
      "count": 1774,
      "bufferView": 3,
      "byteOffset": 56
    },
    {
      "type": "VEC3",
      "componentType": 5126,
      "count": 1202,
      "max": [
        0.8319411277770996,
        1.4291001558303833,
        0.023582953959703445
      ],
      "min": [
        -0.8319411277770996,
        1.352566123008728,
        -0.09866578131914139
      ],
      "bufferView": 4,
      "byteOffset": 0
    },
    {
      "type": "VEC3",
      "componentType": 5126,
      "count": 1202,
      "bufferView": 4,
      "byteOffset": 12
    },
    {
      "type": "VEC2",
      "componentType": 5126,
      "count": 1202,
      "bufferView": 4,
      "byteOffset": 24
    },
    {
      "type": "VEC4",
      "componentType": 5121,
      "count": 1202,
      "normalized": true,
      "bufferView": 4,
      "byteOffset": 32
    },
    {
      "type": "VEC4",
      "componentType": 5123,
      "count": 1202,
      "normalized": true,
      "bufferView": 4,
      "byteOffset": 36
    },
    {
      "type": "VEC4",
      "componentType": 5123,
      "count": 1202,
      "normalized": true,
      "bufferView": 4,
      "byteOffset": 44
    },
    {
      "type": "VEC4",
      "componentType": 5121,
      "count": 1202,
      "bufferView": 4,
      "byteOffset": 52
    },
    {
      "type": "VEC4",
      "componentType": 5126,
      "count": 1202,
      "bufferView": 4,
      "byteOffset": 56
    },
    {
      "type": "VEC3",
      "componentType": 5126,
      "count": 4000,
      "max": [
        0.6893265843391418,
        1.4738924503326416,
        0.02004142478108406
      ],
      "min": [
        -0.6893265843391418,
        1.3541157245635986,
        -0.11295317113399506
      ],
      "bufferView": 5,
      "byteOffset": 0
    },
    {
      "type": "VEC3",
      "componentType": 5126,
      "count": 4000,
      "bufferView": 5,
      "byteOffset": 12
    },
    {
      "type": "VEC2",
      "componentType": 5126,
      "count": 4000,
      "bufferView": 5,
      "byteOffset": 24
    },
    {
      "type": "VEC4",
      "componentType": 5121,
      "count": 4000,
      "normalized": true,
      "bufferView": 5,
      "byteOffset": 32
    },
    {
      "type": "VEC4",
      "componentType": 5123,
      "count": 4000,
      "normalized": true,
      "bufferView": 5,
      "byteOffset": 36
    },
    {
      "type": "VEC4",
      "componentType": 5123,
      "count": 4000,
      "normalized": true,
      "bufferView": 5,
      "byteOffset": 44
    },
    {
      "type": "VEC4",
      "componentType": 5121,
      "count": 4000,
      "bufferView": 5,
      "byteOffset": 52
    },
    {
      "type": "VEC4",
      "componentType": 5126,
      "count": 4000,
      "bufferView": 5,
      "byteOffset": 56
    },
    {
      "type": "VEC3",
      "componentType": 5126,
      "count": 2785,
      "max": [
        0.19003857672214508,
        1.5412611961364746,
        0.16357310116291046
      ],
      "min": [
        -0.19003857672214508,
        0.9188352227210999,
        -0.18152527511119843
      ],
      "bufferView": 6,
      "byteOffset": 0
    },
    {
      "type": "VEC3",
      "componentType": 5126,
      "count": 2785,
      "bufferView": 6,
      "byteOffset": 12
    },
    {
      "type": "VEC2",
      "componentType": 5126,
      "count": 2785,
      "bufferView": 6,
      "byteOffset": 24
    },
    {
      "type": "VEC4",
      "componentType": 5121,
      "count": 2785,
      "normalized": true,
      "bufferView": 6,
      "byteOffset": 32
    },
    {
      "type": "VEC4",
      "componentType": 5123,
      "count": 2785,
      "normalized": true,
      "bufferView": 6,
      "byteOffset": 36
    },
    {
      "type": "VEC4",
      "componentType": 5123,
      "count": 2785,
      "normalized": true,
      "bufferView": 6,
      "byteOffset": 44
    },
    {
      "type": "VEC4",
      "componentType": 5121,
      "count": 2785,
      "bufferView": 6,
      "byteOffset": 52
    },
    {
      "type": "VEC4",
      "componentType": 5126,
      "count": 2785,
      "bufferView": 6,
      "byteOffset": 56
    },
    {
      "type": "VEC3",
      "componentType": 5126,
      "count": 928,
      "max": [
        0.12832114100456238,
        1.2027900218963623,
        0.14617401361465454
      ],
      "min": [
        -0.11926408857107162,
        1.1571892499923706,
        -0.08207154273986816
      ],
      "bufferView": 7,
      "byteOffset": 0
    },
    {
      "type": "VEC3",
      "componentType": 5126,
      "count": 928,
      "bufferView": 7,
      "byteOffset": 12
    },
    {
      "type": "VEC2",
      "componentType": 5126,
      "count": 928,
      "bufferView": 7,
      "byteOffset": 24
    },
    {
      "type": "VEC4",
      "componentType": 5121,
      "count": 928,
      "normalized": true,
      "bufferView": 7,
      "byteOffset": 32
    },
    {
      "type": "VEC4",
      "componentType": 5123,
      "count": 928,
      "normalized": true,
      "bufferView": 7,
      "byteOffset": 36
    },
    {
      "type": "VEC4",
      "componentType": 5123,
      "count": 928,
      "normalized": true,
      "bufferView": 7,
      "byteOffset": 44
    },
    {
      "type": "VEC4",
      "componentType": 5123,
      "count": 928,
      "normalized": true,
      "bufferView": 7,
      "byteOffset": 52
    },
    {
      "type": "VEC4",
      "componentType": 5121,
      "count": 928,
      "bufferView": 7,
      "byteOffset": 60
    },
    {
      "type": "VEC4",
      "componentType": 5126,
      "count": 928,
      "bufferView": 7,
      "byteOffset": 64
    },
    {
      "type": "VEC3",
      "componentType": 5126,
      "count": 928,
      "max": [
        0.12562987208366394,
        1.1635563373565674,
        0.1312810629606247
      ],
      "min": [
        -0.12259617447853088,
        1.104406714439392,
        -0.08671698719263077
      ],
      "bufferView": 8,
      "byteOffset": 0
    },
    {
      "type": "VEC3",
      "componentType": 5126,
      "count": 928,
      "bufferView": 8,
      "byteOffset": 12
    },
    {
      "type": "VEC2",
      "componentType": 5126,
      "count": 928,
      "bufferView": 8,
      "byteOffset": 24
    },
    {
      "type": "VEC4",
      "componentType": 5121,
      "count": 928,
      "normalized": true,
      "bufferView": 8,
      "byteOffset": 32
    },
    {
      "type": "VEC4",
      "componentType": 5123,
      "count": 928,
      "normalized": true,
      "bufferView": 8,
      "byteOffset": 36
    },
    {
      "type": "VEC4",
      "componentType": 5123,
      "count": 928,
      "normalized": true,
      "bufferView": 8,
      "byteOffset": 44
    },
    {
      "type": "VEC4",
      "componentType": 5121,
      "count": 928,
      "bufferView": 8,
      "byteOffset": 52
    },
    {
      "type": "VEC4",
      "componentType": 5126,
      "count": 928,
      "bufferView": 8,
      "byteOffset": 56
    },
    {
      "type": "VEC3",
      "componentType": 5126,
      "count": 10174,
      "max": [
        0.20106440782546997,
        0.5564149022102356,
        0.16754150390625
      ],
      "min": [
        -0.20106440782546997,
        -0.003967253491282463,
        -0.16953377425670624
      ],
      "bufferView": 9,
      "byteOffset": 0
    },
    {
      "type": "VEC3",
      "componentType": 5126,
      "count": 10174,
      "bufferView": 9,
      "byteOffset": 12
    },
    {
      "type": "VEC2",
      "componentType": 5126,
      "count": 10174,
      "bufferView": 9,
      "byteOffset": 24
    },
    {
      "type": "VEC4",
      "componentType": 5121,
      "count": 10174,
      "normalized": true,
      "bufferView": 9,
      "byteOffset": 32
    },
    {
      "type": "VEC4",
      "componentType": 5123,
      "count": 10174,
      "normalized": true,
      "bufferView": 9,
      "byteOffset": 36
    },
    {
      "type": "VEC4",
      "componentType": 5123,
      "count": 10174,
      "normalized": true,
      "bufferView": 9,
      "byteOffset": 44
    },
    {
      "type": "VEC4",
      "componentType": 5121,
      "count": 10174,
      "bufferView": 9,
      "byteOffset": 52
    },
    {
      "type": "VEC4",
      "componentType": 5126,
      "count": 10174,
      "bufferView": 9,
      "byteOffset": 56
    },
    {
      "type": "VEC3",
      "componentType": 5126,
      "count": 1240,
      "max": [
        0.16386282444000244,
        1.794079303741455,
        0.13214945793151855
      ],
      "min": [
        -0.16274532675743103,
        1.4736733436584473,
        -0.20963017642498016
      ],
      "bufferView": 10,
      "byteOffset": 0
    },
    {
      "type": "VEC3",
      "componentType": 5126,
      "count": 1240,
      "bufferView": 10,
      "byteOffset": 12
    },
    {
      "type": "VEC2",
      "componentType": 5126,
      "count": 1240,
      "bufferView": 10,
      "byteOffset": 24
    },
    {
      "type": "VEC4",
      "componentType": 5121,
      "count": 1240,
      "normalized": true,
      "bufferView": 10,
      "byteOffset": 32
    },
    {
      "type": "VEC4",
      "componentType": 5123,
      "count": 1240,
      "normalized": true,
      "bufferView": 10,
      "byteOffset": 36
    },
    {
      "type": "VEC4",
      "componentType": 5123,
      "count": 1240,
      "normalized": true,
      "bufferView": 10,
      "byteOffset": 44
    },
    {
      "type": "VEC4",
      "componentType": 5121,
      "count": 1240,
      "bufferView": 10,
      "byteOffset": 52
    },
    {
      "type": "VEC4",
      "componentType": 5126,
      "count": 1240,
      "bufferView": 10,
      "byteOffset": 56
    },
    {
      "type": "VEC3",
      "componentType": 5126,
      "count": 685,
      "max": [
        0.20561084151268005,
        1.061721920967102,
        0.08544659614562988
      ],
      "min": [
        -0.20561084151268005,
        0.41137993335723877,
        -0.15474146604537964
      ],
      "bufferView": 11,
      "byteOffset": 0
    },
    {
      "type": "VEC3",
      "componentType": 5126,
      "count": 685,
      "bufferView": 11,
      "byteOffset": 12
    },
    {
      "type": "VEC2",
      "componentType": 5126,
      "count": 685,
      "bufferView": 11,
      "byteOffset": 24
    },
    {
      "type": "VEC4",
      "componentType": 5121,
      "count": 685,
      "normalized": true,
      "bufferView": 11,
      "byteOffset": 32
    },
    {
      "type": "VEC4",
      "componentType": 5123,
      "count": 685,
      "normalized": true,
      "bufferView": 11,
      "byteOffset": 36
    },
    {
      "type": "VEC4",
      "componentType": 5123,
      "count": 685,
      "normalized": true,
      "bufferView": 11,
      "byteOffset": 44
    },
    {
      "type": "VEC4",
      "componentType": 5121,
      "count": 685,
      "bufferView": 11,
      "byteOffset": 52
    },
    {
      "type": "VEC4",
      "componentType": 5126,
      "count": 685,
      "bufferView": 11,
      "byteOffset": 56
    }
  ],
  "bufferViews": [
    {
      "buffer": 0,
      "byteOffset": 0,
      "byteLength": 78624,
      "byteStride": 72,
      "target": 34962
    },
    {
      "buffer": 0,
      "byteOffset": 78624,
      "byteLength": 161796,
      "target": 34963
    },
    {
      "buffer": 0,
      "byteOffset": 240420,
      "byteLength": 4160
    },
    {
      "buffer": 0,
      "byteOffset": 244580,
      "byteLength": 127728,
      "byteStride": 72,
      "target": 34962
    },
    {
      "buffer": 0,
      "byteOffset": 372308,
      "byteLength": 86544,
      "byteStride": 72,
      "target": 34962
    },
    {
      "buffer": 0,
      "byteOffset": 458852,
      "byteLength": 288000,
      "byteStride": 72,
      "target": 34962
    },
    {
      "buffer": 0,
      "byteOffset": 746852,
      "byteLength": 200520,
      "byteStride": 72,
      "target": 34962
    },
    {
      "buffer": 0,
      "byteOffset": 947372,
      "byteLength": 74240,
      "byteStride": 80,
      "target": 34962
    },
    {
      "buffer": 0,
      "byteOffset": 1021612,
      "byteLength": 66816,
      "byteStride": 72,
      "target": 34962
    },
    {
      "buffer": 0,
      "byteOffset": 1088428,
      "byteLength": 732528,
      "byteStride": 72,
      "target": 34962
    },
    {
      "buffer": 0,
      "byteOffset": 1820956,
      "byteLength": 89280,
      "byteStride": 72,
      "target": 34962
    },
    {
      "buffer": 0,
      "byteOffset": 1910236,
      "byteLength": 49320,
      "byteStride": 72,
      "target": 34962
    }
  ],
  "samplers": [
    {
      "magFilter": 9729,
      "minFilter": 9987,
      "wrapS": 10497,
      "wrapT": 10497
    }
  ],
  "textures": [
    {
      "source": 1,
      "sampler": 0
    },
    {
      "source": 0,
      "sampler": 0
    },
    {
      "source": 2,
      "sampler": 0
    },
    {
      "source": 4,
      "sampler": 0
    },
    {
      "source": 3,
      "sampler": 0
    },
    {
      "source": 5,
      "sampler": 0
    }
  ],
  "images": [
    {
      "name": "T_Ranger_Normal",
      "mimeType": "image/png",
      "uri": "T_Ranger_Normal.png"
    },
    {
      "name": "T_Ranger_BaseColor",
      "mimeType": "image/png",
      "uri": "T_Ranger_BaseColor.png"
    },
    {
      "name": "T_Ranger_ORM",
      "mimeType": "image/png",
      "uri": "T_Ranger_ORM.png"
    },
    {
      "name": "T_Regular_Female_Normal",
      "mimeType": "image/png",
      "uri": "T_Regular_Female_Normal.png"
    },
    {
      "name": "T_Regular_Female_Dark_BaseColor",
      "mimeType": "image/png",
      "uri": "T_Regular_Female_Dark_BaseColor.png"
    },
    {
      "name": "T_Regular_Female_Roughness",
      "mimeType": "image/png",
      "uri": "T_Regular_Female_Roughness.png"
    }
  ],
  "buffers": [
    {
      "uri": "Female_Ranger.bin",
      "byteLength": 1959556
    }
  ],
  "materials": [
    {
      "name": "MI_Ranger",
      "doubleSided": true,
      "pbrMetallicRoughness": {
        "baseColorTexture": {
          "index": 0
        },
        "metallicRoughnessTexture": {
          "index": 2
        }
      },
      "normalTexture": {
        "index": 1
      }
    },
    {
      "name": "MI_Regular_Female",
      "doubleSided": true,
      "pbrMetallicRoughness": {
        "metallicFactor": 0,
        "baseColorTexture": {
          "index": 3
        },
        "metallicRoughnessTexture": {
          "index": 5
        }
      },
      "normalTexture": {
        "index": 4
      }
    }
  ],
  "meshes": [
    {
      "name": "Female_Ranger_Acc_Pauldrons",
      "primitives": [
        {
          "attributes": {
            "POSITION": 0,
            "NORMAL": 1,
            "TEXCOORD_0": 2,
            "COLOR_0": 3,
            "COLOR_1": 4,
            "COLOR_2": 5,
            "JOINTS_0": 6,
            "WEIGHTS_0": 7
          },
          "mode": 4,
          "material": 0,
          "indices": 8
        }
      ]
    },
    {
      "name": "Female_Ranger_Arms",
      "primitives": [
        {
          "attributes": {
            "POSITION": 19,
            "NORMAL": 20,
            "TEXCOORD_0": 21,
            "COLOR_0": 22,
            "COLOR_1": 23,
            "COLOR_2": 24,
            "JOINTS_0": 25,
            "WEIGHTS_0": 26
          },
          "mode": 4,
          "material": 0,
          "indices": 9
        },
        {
          "attributes": {
            "POSITION": 27,
            "NORMAL": 28,
            "TEXCOORD_0": 29,
            "COLOR_0": 30,
            "COLOR_1": 31,
            "COLOR_2": 32,
            "JOINTS_0": 33,
            "WEIGHTS_0": 34
          },
          "mode": 4,
          "material": 1,
          "indices": 10
        }
      ]
    },
    {
      "name": "Female_Ranger_Arms_Bracer",
      "primitives": [
        {
          "attributes": {
            "POSITION": 35,
            "NORMAL": 36,
            "TEXCOORD_0": 37,
            "COLOR_0": 38,
            "COLOR_1": 39,
            "COLOR_2": 40,
            "JOINTS_0": 41,
            "WEIGHTS_0": 42
          },
          "mode": 4,
          "material": 0,
          "indices": 11
        }
      ]
    },
    {
      "name": "Female_Ranger_Body",
      "primitives": [
        {
          "attributes": {
            "POSITION": 43,
            "NORMAL": 44,
            "TEXCOORD_0": 45,
            "COLOR_0": 46,
            "COLOR_1": 47,
            "COLOR_2": 48,
            "JOINTS_0": 49,
            "WEIGHTS_0": 50
          },
          "mode": 4,
          "material": 0,
          "indices": 12
        }
      ]
    },
    {
      "name": "Female_Ranger_Body_Belt_1",
      "primitives": [
        {
          "attributes": {
            "POSITION": 51,
            "NORMAL": 52,
            "TEXCOORD_0": 53,
            "COLOR_0": 54,
            "COLOR_1": 55,
            "COLOR_2": 56,
            "COLOR_3": 57,
            "JOINTS_0": 58,
            "WEIGHTS_0": 59
          },
          "mode": 4,
          "material": 0,
          "indices": 13
        }
      ]
    },
    {
      "name": "Female_Ranger_Body_Belt_2",
      "primitives": [
        {
          "attributes": {
            "POSITION": 60,
            "NORMAL": 61,
            "TEXCOORD_0": 62,
            "COLOR_0": 63,
            "COLOR_1": 64,
            "COLOR_2": 65,
            "JOINTS_0": 66,
            "WEIGHTS_0": 67
          },
          "mode": 4,
          "material": 0,
          "indices": 14
        }
      ]
    },
    {
      "name": "Female_Ranger_Feet",
      "primitives": [
        {
          "attributes": {
            "POSITION": 68,
            "NORMAL": 69,
            "TEXCOORD_0": 70,
            "COLOR_0": 71,
            "COLOR_1": 72,
            "COLOR_2": 73,
            "JOINTS_0": 74,
            "WEIGHTS_0": 75
          },
          "mode": 4,
          "material": 0,
          "indices": 15
        }
      ]
    },
    {
      "name": "Female_Ranger_Head_Hood",
      "primitives": [
        {
          "attributes": {
            "POSITION": 76,
            "NORMAL": 77,
            "TEXCOORD_0": 78,
            "COLOR_0": 79,
            "COLOR_1": 80,
            "COLOR_2": 81,
            "JOINTS_0": 82,
            "WEIGHTS_0": 83
          },
          "mode": 4,
          "material": 0,
          "indices": 16
        }
      ]
    },
    {
      "name": "Female_Ranger_Legs",
      "primitives": [
        {
          "attributes": {
            "POSITION": 84,
            "NORMAL": 85,
            "TEXCOORD_0": 86,
            "COLOR_0": 87,
            "COLOR_1": 88,
            "COLOR_2": 89,
            "JOINTS_0": 90,
            "WEIGHTS_0": 91
          },
          "mode": 4,
          "material": 0,
          "indices": 17
        }
      ]
    }
  ],
  "nodes": [
    {
      "name": "Head",
      "translation": [
        -1.5903435849255598e-27,
        0.0711912140250206,
        2.0489096641540527e-8
      ],
      "rotation": [
        -0.20467473566532135,
        -4.759437705400649e-21,
        1.2439442348830942e-21,
        0.9788300395011902
      ]
    },
    {
      "name": "neck_01",
      "translation": [
        -1.0141478263557337e-20,
        0.19815585017204285,
        2.60770320892334e-8
      ],
      "rotation": [
        0.3088374435901642,
        8.337463586651673e-21,
        -5.849849968646638e-21,
        0.95111483335495
      ],
      "children": [
        0
      ]
    },
    {
      "name": "index_04_leaf_l",
      "translation": [
        9.076757123693824e-10,
        0.023510519415140152,
        -3.8285477899080433e-8
      ],
      "rotation": [
        -8.381903171539307e-9,
        1,
        -1.5432005174599583e-14,
        0.0000036517765238386346
      ]
    },
    {
      "name": "index_03_l",
      "translation": [
        4.420144250616431e-10,
        0.027111778035759926,
        -3.670398029953503e-8
      ],
      "rotation": [
        1.0023382124302316e-9,
        7.603918037758783e-13,
        -0.00013328436762094498,
        1
      ],
      "children": [
        2
      ]
    },
    {
      "name": "index_02_l",
      "translation": [
        8.094502845779061e-11,
        0.03171013668179512,
        -6.863018597869086e-9
      ],
      "rotation": [
        1.8987577732332284e-8,
        1.4024364247688936e-7,
        -0.002140256343409419,
        0.9999977350234985
      ],
      "children": [
        3
      ]
    },
    {
      "name": "index_01_l",
      "translation": [
        0.004199977032840252,
        0.08823654055595398,
        0.03620496019721031
      ],
      "rotation": [
        -0.0033091865479946136,
        0.7071018815040588,
        -0.003309202380478382,
        0.7070961594581604
      ],
      "children": [
        4
      ]
    },
    {
      "name": "middle_04_leaf_l",
      "translation": [
        2.193701220676303e-9,
        0.029620492830872536,
        1.1362611473941797e-7
      ],
      "rotation": [
        2.0489096641540527e-8,
        1,
        6.335320587363621e-14,
        0.0000036517765238386346
      ]
    },
    {
      "name": "middle_03_l",
      "translation": [
        -4.32646629633382e-9,
        0.02931377850472927,
        3.287611605173879e-8
      ],
      "rotation": [
        2.420814304571195e-8,
        1.4173854798182894e-11,
        -0.0032189602497965097,
        0.9999948143959045
      ],
      "children": [
        6
      ]
    },
    {
      "name": "middle_02_l",
      "translation": [
        1.6816557035781443e-9,
        0.03642695024609566,
        1.0210540324351314e-7
      ],
      "rotation": [
        -2.949975197452659e-8,
        1.402399334438087e-7,
        0.0038676888216286898,
        0.9999924898147583
      ],
      "children": [
        7
      ]
    },
    {
      "name": "middle_01_l",
      "translation": [
        0.001899929717183113,
        0.08634158223867416,
        0.010671664960682392
      ],
      "rotation": [
        -0.007979890331625938,
        0.7070646286010742,
        -0.007979941554367542,
        0.7070589065551758
      ],
      "children": [
        8
      ]
    },
    {
      "name": "pinky_04_leaf_l",
      "translation": [
        -1.317857822868973e-9,
        0.020919334143400192,
        -1.727942162688123e-7
      ],
      "rotation": [
        8.381903171539307e-9,
        1,
        5.647658583201112e-14,
        0.00000365177675121231
      ]
    },
    {
      "name": "pinky_03_l",
      "translation": [
        -1.318767317570746e-9,
        0.026631725952029228,
        -8.721048061488545e-8
      ],
      "rotation": [
        -2.1800540039862426e-8,
        5.25581791629981e-12,
        0.0028988486155867577,
        0.9999958276748657
      ],
      "children": [
        10
      ]
    },
    {
      "name": "pinky_02_l",
      "translation": [
        -2.967681211885065e-9,
        0.03083186410367489,
        -8.672896001371555e-8
      ],
      "rotation": [
        1.03155857189563e-8,
        1.4017835781032773e-7,
        -0.001705002854578197,
        0.9999985694885254
      ],
      "children": [
        11
      ]
    },
    {
      "name": "pinky_01_l",
      "translation": [
        0.003799965837970376,
        0.06994835287332535,
        -0.03399413824081421
      ],
      "rotation": [
        -0.01044775452464819,
        0.7070325016975403,
        -0.010447824373841286,
        0.7070267200469971
      ],
      "children": [
        12
      ]
    },
    {
      "name": "ring_04_leaf_l",
      "translation": [
        9.5042196335271e-10,
        0.028301579877734184,
        -3.474425369631717e-8
      ],
      "rotation": [
        2.7474015951156616e-8,
        1,
        1.0721373739979931e-13,
        0.00000365177675121231
      ]
    },
    {
      "name": "ring_03_l",
      "translation": [
        7.703420124016702e-9,
        0.027600184082984924,
        -1.1280478418029816e-7
      ],
      "rotation": [
        2.6234243222234e-8,
        4.3393351412124304e-11,
        -0.0034884933847934008,
        0.9999939203262329
      ],
      "children": [
        14
      ]
    },
    {
      "name": "ring_02_l",
      "translation": [
        -9.877112461254e-10,
        0.035001225769519806,
        -1.5782489981575054e-7
      ],
      "rotation": [
        -1.8197205520209536e-8,
        1.4009778226409253e-7,
        0.002474082401022315,
        0.9999969601631165
      ],
      "children": [
        15
      ]
    },
    {
      "name": "ring_01_l",
      "translation": [
        0.0021999571472406387,
        0.08042963594198227,
        -0.013825255446135998
      ],
      "rotation": [
        0.0025809321086853743,
        0.7071049213409424,
        0.0025809479411691427,
        0.707099199295044
      ],
      "children": [
        16
      ]
    },
    {
      "name": "thumb_04_leaf_l",
      "translation": [
        -1.2670352589339018e-7,
        0.03127264976501465,
        3.073364496231079e-8
      ],
      "rotation": [
        -1.2782692238033633e-8,
        0.48539119958877563,
        2.0375746601075662e-7,
        0.8742970824241638
      ]
    },
    {
      "name": "thumb_03_l",
      "translation": [
        2.2436142899096012e-7,
        0.035620346665382385,
        5.122274160385132e-9
      ],
      "rotation": [
        -0.0012816648231819272,
        0.00005811178561998531,
        0.0002541383437346667,
        0.9999991655349731
      ],
      "children": [
        18
      ]
    },
    {
      "name": "thumb_02_l",
      "translation": [
        1.453081495128572e-7,
        0.03582108020782471,
        -1.30385160446167e-8
      ],
      "rotation": [
        0.0019128327257931232,
        0.00019216042710468173,
        -0.0004484721284825355,
        0.9999980330467224
      ],
      "children": [
        19
      ]
    },
    {
      "name": "thumb_01_l",
      "translation": [
        0.009999980218708515,
        -0.0028757674153894186,
        0.029958141967654228
      ],
      "rotation": [
        0.263997346162796,
        0.9450139999389648,
        0.1882738322019577,
        0.04250776767730713
      ],
      "children": [
        20
      ]
    },
    {
      "name": "hand_l",
      "translation": [
        1.532122695380167e-8,
        0.24930401146411896,
        5.277343007037416e-9
      ],
      "rotation": [
        -0.02237604185938835,
        -0.000002264418526465306,
        -3.032003448311116e-8,
        0.9997496008872986
      ],
      "children": [
        5,
        9,
        13,
        17,
        21
      ]
    },
    {
      "name": "lowerarm_l",
      "translation": [
        -4.793889729626244e-8,
        0.2403421401977539,
        -4.220055416226387e-9
      ],
      "rotation": [
        0.023802155628800392,
        0.00008208974031731486,
        -0.0000018556972918304382,
        0.9997166991233826
      ],
      "children": [
        22
      ]
    },
    {
      "name": "upperarm_l",
      "translation": [
        -0.0016045584343373775,
        0.1410660296678543,
        -0.01228591613471508
      ],
      "rotation": [
        0.17232586443424225,
        0.6858593225479126,
        -0.1717943400144577,
        0.68584805727005
      ],
      "children": [
        23
      ]
    },
    {
      "name": "clavicle_l",
      "translation": [
        0.02930000051856041,
        0.13370320200920105,
        0.0448194220662117
      ],
      "rotation": [
        -0.5471324324607849,
        -0.3204275965690613,
        -0.39127784967422485,
        0.666988730430603
      ],
      "children": [
        24
      ]
    },
    {
      "name": "index_04_leaf_r",
      "translation": [
        -9.076757123693824e-10,
        0.023510519415140152,
        -3.8285477899080433e-8
      ],
      "rotation": [
        -8.381903171539307e-9,
        -1,
        1.5432005174599583e-14,
        0.0000036517765238386346
      ]
    },
    {
      "name": "index_03_r",
      "translation": [
        -4.420144250616431e-10,
        0.027111778035759926,
        -3.670398029953503e-8
      ],
      "rotation": [
        1.0023382124302316e-9,
        -7.603918037758783e-13,
        0.00013328436762094498,
        1
      ],
      "children": [
        26
      ]
    },
    {
      "name": "index_02_r",
      "translation": [
        -8.094502845779061e-11,
        0.03171013668179512,
        -6.863018597869086e-9
      ],
      "rotation": [
        1.8987577732332284e-8,
        -1.4024364247688936e-7,
        0.002140256343409419,
        0.9999977350234985
      ],
      "children": [
        27
      ]
    },
    {
      "name": "index_01_r",
      "translation": [
        -0.004199977032840252,
        0.08823654055595398,
        0.03620496019721031
      ],
      "rotation": [
        -0.0033091865479946136,
        -0.7071018815040588,
        0.003309202380478382,
        0.7070961594581604
      ],
      "children": [
        28
      ]
    },
    {
      "name": "middle_04_leaf_r",
      "translation": [
        -2.193701220676303e-9,
        0.029620492830872536,
        1.1362611473941797e-7
      ],
      "rotation": [
        2.0489096641540527e-8,
        -1,
        -6.335320587363621e-14,
        0.0000036517765238386346
      ]
    },
    {
      "name": "middle_03_r",
      "translation": [
        4.32646629633382e-9,
        0.02931377850472927,
        3.287611605173879e-8
      ],
      "rotation": [
        2.420814304571195e-8,
        -1.4173854798182894e-11,
        0.0032189602497965097,
        0.9999948143959045
      ],
      "children": [
        30
      ]
    },
    {
      "name": "middle_02_r",
      "translation": [
        -1.6816557035781443e-9,
        0.03642695024609566,
        1.0210540324351314e-7
      ],
      "rotation": [
        -2.949975197452659e-8,
        -1.402399334438087e-7,
        -0.0038676888216286898,
        0.9999924898147583
      ],
      "children": [
        31
      ]
    },
    {
      "name": "middle_01_r",
      "translation": [
        -0.001899929717183113,
        0.08634158223867416,
        0.010671664960682392
      ],
      "rotation": [
        -0.007979890331625938,
        -0.7070646286010742,
        0.007979941554367542,
        0.7070589065551758
      ],
      "children": [
        32
      ]
    },
    {
      "name": "pinky_04_leaf_r",
      "translation": [
        1.317857822868973e-9,
        0.020919334143400192,
        -1.727942162688123e-7
      ],
      "rotation": [
        8.381903171539307e-9,
        -1,
        -5.647658583201112e-14,
        0.00000365177675121231
      ]
    },
    {
      "name": "pinky_03_r",
      "translation": [
        1.318767317570746e-9,
        0.026631725952029228,
        -8.721048061488545e-8
      ],
      "rotation": [
        -2.1800540039862426e-8,
        -5.25581791629981e-12,
        -0.0028988486155867577,
        0.9999958276748657
      ],
      "children": [
        34
      ]
    },
    {
      "name": "pinky_02_r",
      "translation": [
        2.967681211885065e-9,
        0.03083186410367489,
        -8.672896001371555e-8
      ],
      "rotation": [
        1.03155857189563e-8,
        -1.4017835781032773e-7,
        0.001705002854578197,
        0.9999985694885254
      ],
      "children": [
        35
      ]
    },
    {
      "name": "pinky_01_r",
      "translation": [
        -0.003799965837970376,
        0.06994835287332535,
        -0.03399413824081421
      ],
      "rotation": [
        -0.01044775452464819,
        -0.7070325016975403,
        0.010447824373841286,
        0.7070267200469971
      ],
      "children": [
        36
      ]
    },
    {
      "name": "ring_04_leaf_r",
      "translation": [
        -9.5042196335271e-10,
        0.028301579877734184,
        -3.474425369631717e-8
      ],
      "rotation": [
        2.7474015951156616e-8,
        -1,
        -1.0721373739979931e-13,
        0.00000365177675121231
      ]
    },
    {
      "name": "ring_03_r",
      "translation": [
        -7.703420124016702e-9,
        0.027600184082984924,
        -1.1280478418029816e-7
      ],
      "rotation": [
        2.6234243222234e-8,
        -4.3393351412124304e-11,
        0.0034884933847934008,
        0.9999939203262329
      ],
      "children": [
        38
      ]
    },
    {
      "name": "ring_02_r",
      "translation": [
        9.877112461254e-10,
        0.035001225769519806,
        -1.5782489981575054e-7
      ],
      "rotation": [
        -1.8197205520209536e-8,
        -1.4009778226409253e-7,
        -0.002474082401022315,
        0.9999969601631165
      ],
      "children": [
        39
      ]
    },
    {
      "name": "ring_01_r",
      "translation": [
        -0.0021999571472406387,
        0.08042963594198227,
        -0.013825255446135998
      ],
      "rotation": [
        0.0025809321086853743,
        -0.7071049213409424,
        -0.0025809479411691427,
        0.707099199295044
      ],
      "children": [
        40
      ]
    },
    {
      "name": "thumb_04_leaf_r",
      "translation": [
        1.2622331269085407e-7,
        0.031272709369659424,
        3.073364496231079e-8
      ],
      "rotation": [
        -2.5565388028780944e-8,
        -0.48539119958877563,
        -1.9393742434203887e-7,
        0.8742970824241638
      ]
    },
    {
      "name": "thumb_03_r",
      "translation": [
        -1.0542134987190366e-7,
        0.03562036156654358,
        -8.847564458847046e-9
      ],
      "rotation": [
        -0.0012816853122785687,
        -0.00005809385038446635,
        -0.00025414914125576615,
        0.9999991655349731
      ],
      "children": [
        42
      ]
    },
    {
      "name": "thumb_02_r",
      "translation": [
        -1.453081495128572e-7,
        0.03582108020782471,
        -1.30385160446167e-8
      ],
      "rotation": [
        0.001912830863147974,
        -0.00019218510715290904,
        0.0004484682867769152,
        0.9999980330467224
      ],
      "children": [
        43
      ]
    },
    {
      "name": "thumb_01_r",
      "translation": [
        -0.009999980218708515,
        -0.0028757674153894186,
        0.029958141967654228
      ],
      "rotation": [
        0.263997346162796,
        -0.9450139999389648,
        -0.1882738322019577,
        0.04250776767730713
      ],
      "children": [
        44
      ]
    },
    {
      "name": "hand_r",
      "translation": [
        -1.532122695380167e-8,
        0.24930401146411896,
        5.277343007037416e-9
      ],
      "rotation": [
        -0.02237604185938835,
        0.000002264418526465306,
        3.032003448311116e-8,
        0.9997496008872986
      ],
      "children": [
        29,
        33,
        37,
        41,
        45
      ]
    },
    {
      "name": "lowerarm_r",
      "translation": [
        4.793889729626244e-8,
        0.2403421401977539,
        -4.220055416226387e-9
      ],
      "rotation": [
        0.023802155628800392,
        -0.00008208974031731486,
        0.0000018556972918304382,
        0.9997166991233826
      ],
      "children": [
        46
      ]
    },
    {
      "name": "upperarm_r",
      "translation": [
        0.0016045584343373775,
        0.1410660296678543,
        -0.01228591613471508
      ],
      "rotation": [
        0.17232586443424225,
        -0.6858593225479126,
        0.1717943400144577,
        0.68584805727005
      ],
      "children": [
        47
      ]
    },
    {
      "name": "clavicle_r",
      "translation": [
        -0.02930000051856041,
        0.13370320200920105,
        0.0448194220662117
      ],
      "rotation": [
        -0.5471324324607849,
        0.3204275965690613,
        0.39127784967422485,
        0.666988730430603
      ],
      "children": [
        48
      ]
    },
    {
      "name": "spine_03",
      "translation": [
        4.6735704609246064e-20,
        0.12640145421028137,
        3.4924596548080444e-10
      ],
      "rotation": [
        -0.10099761933088303,
        4.5928396448426806e-14,
        -4.5242200827702583e-13,
        0.9948866963386536
      ],
      "children": [
        1,
        25,
        49
      ]
    },
    {
      "name": "spine_02",
      "translation": [
        -4.263256414560601e-13,
        0.11034487932920456,
        8.381903171539307e-9
      ],
      "rotation": [
        -0.055728573352098465,
        -0.00004992229150957428,
        -0.0000027864282401424134,
        0.998445987701416
      ],
      "children": [
        50
      ]
    },
    {
      "name": "spine_01",
      "translation": [
        0,
        0.12655510008335114,
        -9.313225746154785e-10
      ],
      "rotation": [
        -0.06393160670995712,
        0.00004989771332475357,
        -0.00000319658010994317,
        0.9979543089866638
      ],
      "children": [
        51
      ]
    },
    {
      "name": "ball_leaf_l",
      "translation": [
        5.525180313270539e-10,
        0.06809987872838974,
        -1.204170985147357e-9
      ],
      "rotation": [
        0,
        0.00017269056115765125,
        5.421010862427522e-20,
        1
      ]
    },
    {
      "name": "ball_l",
      "translation": [
        1.4901161193847656e-8,
        0.14916980266571045,
        -6.51925802230835e-9
      ],
      "rotation": [
        -0.00003296312570455484,
        0.9816133975982666,
        -0.1908797174692154,
        0.00016951537691056728
      ],
      "children": [
        53
      ]
    },
    {
      "name": "foot_l",
      "translation": [
        -7.450580596923828e-9,
        0.4661003053188324,
        2.7939677238464355e-9
      ],
      "rotation": [
        -0.5978578329086304,
        0,
        0,
        0.8016021847724915
      ],
      "children": [
        54
      ]
    },
    {
      "name": "calf_l",
      "translation": [
        -7.450580596923828e-9,
        0.4098641872406006,
        1.3969838619232178e-9
      ],
      "rotation": [
        0.0712229460477829,
        0,
        0,
        0.9974604249000549
      ],
      "children": [
        55
      ]
    },
    {
      "name": "thigh_l",
      "translation": [
        0.11140000075101852,
        0.010460092686116695,
        -0.008893024176359177
      ],
      "rotation": [
        0.9893749952316284,
        0,
        0,
        0.1453862488269806
      ],
      "children": [
        56
      ]
    },
    {
      "name": "ball_leaf_r",
      "translation": [
        5.525180313270539e-10,
        0.06809987872838974,
        -1.5897967386990786e-9
      ],
      "rotation": [
        0,
        0.00017269056115765125,
        5.421010862427522e-20,
        1
      ]
    },
    {
      "name": "ball_r",
      "translation": [
        -1.4901161193847656e-8,
        0.14916980266571045,
        -6.51925802230835e-9
      ],
      "rotation": [
        -0.00003296312570455484,
        0.9816133975982666,
        -0.1908797174692154,
        0.00016951537691056728
      ],
      "children": [
        58
      ]
    },
    {
      "name": "foot_r",
      "translation": [
        7.450580596923828e-9,
        0.4661003053188324,
        2.7939677238464355e-9
      ],
      "rotation": [
        -0.5978578329086304,
        0,
        0,
        0.8016021847724915
      ],
      "children": [
        59
      ]
    },
    {
      "name": "calf_r",
      "translation": [
        7.450580596923828e-9,
        0.4098641872406006,
        1.3969838619232178e-9
      ],
      "rotation": [
        0.0712229460477829,
        0,
        0,
        0.9974604249000549
      ],
      "children": [
        60
      ]
    },
    {
      "name": "thigh_r",
      "translation": [
        -0.11140000075101852,
        0.010460092686116695,
        -0.008893024176359177
      ],
      "rotation": [
        0.9893749952316284,
        0,
        0,
        0.1453862488269806
      ],
      "children": [
        61
      ]
    },
    {
      "name": "pelvis",
      "translation": [
        0,
        0.045700013637542725,
        0.9318000078201294
      ],
      "rotation": [
        0.7879695892333984,
        0,
        0,
        0.6157141923904419
      ],
      "children": [
        52,
        57,
        62
      ]
    },
    {
      "name": "root",
      "rotation": [
        -0.7071067690849304,
        0,
        0,
        0.7071067690849304
      ],
      "children": [
        63
      ]
    },
    {
      "name": "Female_Ranger_Acc_Pauldrons",
      "mesh": 0,
      "skin": 0
    },
    {
      "name": "Female_Ranger_Arms",
      "mesh": 1,
      "skin": 0
    },
    {
      "name": "Female_Ranger_Arms_Bracer",
      "mesh": 2,
      "skin": 0
    },
    {
      "name": "Female_Ranger_Body",
      "mesh": 3,
      "skin": 0
    },
    {
      "name": "Female_Ranger_Body_Belt_1",
      "mesh": 4,
      "skin": 0
    },
    {
      "name": "Female_Ranger_Body_Belt_2",
      "mesh": 5,
      "skin": 0
    },
    {
      "name": "Female_Ranger_Feet",
      "mesh": 6,
      "skin": 0
    },
    {
      "name": "Female_Ranger_Head_Hood",
      "mesh": 7,
      "skin": 0
    },
    {
      "name": "Female_Ranger_Legs",
      "mesh": 8,
      "skin": 0
    },
    {
      "name": "Armature",
      "children": [
        65,
        66,
        67,
        68,
        69,
        70,
        71,
        72,
        73,
        64
      ]
    }
  ],
  "skins": [
    {
      "name": "Armature",
      "inverseBindMatrices": 18,
      "joints": [
        64,
        63,
        52,
        51,
        50,
        1,
        0,
        25,
        24,
        23,
        22,
        5,
        4,
        3,
        2,
        9,
        8,
        7,
        6,
        13,
        12,
        11,
        10,
        17,
        16,
        15,
        14,
        21,
        20,
        19,
        18,
        49,
        48,
        47,
        46,
        29,
        28,
        27,
        26,
        33,
        32,
        31,
        30,
        37,
        36,
        35,
        34,
        41,
        40,
        39,
        38,
        45,
        44,
        43,
        42,
        57,
        56,
        55,
        54,
        53,
        62,
        61,
        60,
        59,
        58
      ]
    }
  ],
  "scenes": [
    {
      "name": "Scene",
      "nodes": [
        74
      ]
    }
  ],
  "scene": 0
}